<svg xmlns="http://www.w3.org/2000/svg" xmlns:xlink="http://www.w3.org/1999/xlink"><symbol id="a64cb9c96d4dd825f07df6af047e8ae7" viewBox="0 0 1000 1000">
<metadata> Svg Vector Icons : http://www.onlinewebfonts.com/icon </metadata>
<g><path d="M424.4,766c-2.8,7.5,32.7,7,37.4-0.1c3.8-5.8,4.1-28.8,7.4-50.5c-21.1-7.8-37.1-16-47-21.7C434.9,747.4,427.2,758.6,424.4,766z M953.5,306.3c6.4,2.5,34.6,7.6,36.5-20.4c1.9-28.1-28.3-29.7-28.3-29.7c4.4-12.5,23.7-11.7,23.7-11.7c-0.8-3.5-6.8-8.4-23.1-7.1c-16.3,1.4-22.9,22.9-22.9,22.9c-12.5,2.1-21.7,11.5-26.8,18.2c-40.6-41.6-100.6-69.7-186.1-59.7c-236.1,27.7-336.7,14.9-407.4,39c-154.9,52.8-135.5,124.9-170,126c-34.4,1.1-152.8-15.1-137.7,3.2c15.1,18.3,53.8,46.3,81.8,53.8c28,7.5,18.3,28,7.5,42c-10.8,14-10.8,48.4-51.6,39.8c0,0-26.9-10.8-17.2,15.1c9.7,25.8,1.1,24.8,22.6,36.6c21.5,11.8,24.7,4.3,55.9,12.9c31.2,8.6,36.4,78.8,182.9,82.9c10.4,0.3,23.4-0.8,38.1-2.7c-3.6-6.2-7.7-12.2-12.3-17.7c-8.2-9.9-16-18.6-23.6-28.4l-9.2-33.6c0,0,22.2,33.9,38.6,48.4c0.5,0.6,1.1,1.2,1.6,1.8c22.6,24.8,39.8,91.5,17.2,110.9c-22.6,19.4-35.5,22.6-15.1,28c20.4,5.4,39.8-4.3,39.8-4.3s8.6-11.8,16.1-16.1c7.5-4.3,10.8-33.4,13-47.4c2.2-14,15.1-54.9,17.2-70c0.5-3.8,1.6-8.4,2.8-13.7c0.7,6.9,0.7,14,0.1,21.4c-1,10.8-1.1,22.4-1.1,35.7c1.3,0.8,2.5,1.6,3.8,2.4c0,0.1,0,0.1,0,0.2c21.3,11.9,93.4,46.7,194.3,38.9c121.1-9.4,195.8-55.3,195.8-55.3l0,0c5.1-3.2,10-6.6,14.6-10c-3.9-15.3-11.8-39.8-27.7-75.2c-0.5-6,0.3-11.5,3.3-15.7c17.8,30.6,34.9,82.7,34.9,82.7l-0.3,1.1c4.7,20.7,7.4,39.3,7.8,50.7c0.9,27.3,0.9,41.5-1.9,46.2c-2.8,4.7-33.9,25.4-25.4,34.9c0,0,33.9,1.9,52.7-6.6c18.8-8.5,12.2-23.6,17.9-37.7c5.6-14.1,43.3-69.7,38.6-93.3c-2.3-11.4-3.2-32.7-3.6-51.5c33.5-35.4,61.6-87.2,63.5-132.8c1.7-41.7-14.5-114-60.1-169.2c3.9-12.5,13.4-14.2,13.4-14.2C936.6,289.4,942.8,302.2,953.5,306.3z M954,270.6l1.6-0.5c0,0,19,2.2,18.8,12c-0.3,9.8-9.5,13.6-16.6,9C950.7,286.4,954,270.6,954,270.6z M194.2,422.1c-0.8-0.2-1.4-0.4-1.9-0.5c1.2,0.3,2.3,0.6,3.4,0.9C195.3,422.3,194.8,422.2,194.2,422.1z M730.2,720c0,6.6-30.1,44.3-30.1,50.9c0,0,30.1,7.5,39.5,0c9.4-7.5,17.9-21.7,17.9-21.7s19.8-18.8,25.4-26.4c3.6-4.8,7.2-20.9,10.5-34.7c-14.7,6.6-35.9,15.4-61.8,23.7C730.7,715.5,730.2,718.3,730.2,720z"/></g>
</symbol><symbol id="bacon (1)" viewBox="0 0 512.002 512.002">
<g>
	<g>
		<path d="M382.57,171.611c-3.859-3.859-10.2-3.953-14.141,0c-3.91,3.9-3.91,10.241,0,14.141c3.865,3.864,10.195,3.946,14.141,0
			C386.471,181.852,386.471,175.511,382.57,171.611z"/>
	</g>
</g>
<g>
	<g>
		<path d="M509.074,138.539c-9.272-9.266-122.536-122.532-127.372-127.367c-2.086-2.086-4.992-3.146-7.926-2.894
			c-2.94,0.253-5.618,1.79-7.318,4.201c-6.662,9.45-20.479,21.888-33.998,27.382c-22.461,9.139-42.831,29.168-52.238,52.231
			c-3.537,8.701-9.303,17.201-16.663,24.571c-8.273,8.263-19.868,16.532-27.582,19.666c-11.167,4.555-21.943,11.838-31.167,21.06
			c-8.513,8.514-19.255,22.377-24.067,34.176c-7.168,17.681-23.385,33.982-41.233,41.237c-11.802,4.802-25.669,15.548-34.169,24.059
			c-9.223,9.211-16.504,19.986-21.059,31.171c-3.139,7.721-11.41,19.318-19.669,27.577c-7.378,7.378-15.868,13.137-24.578,16.663
			c-13.597,5.548-28.591,17.788-37.418,27.457c-3.604,3.948-3.467,10.035,0.313,13.815l42.432,42.433l42.165,42.164
			c0.084,0.091,0.17,0.181,0.258,0.269l42.434,42.422c4.051,4.049,10.639,3.861,14.462-0.336
			c7.283-7.991,19.994-18.258,30.176-22.409c11.152-4.519,21.937-11.797,31.189-21.048c8.519-8.521,19.261-22.395,24.055-34.19
			c3.535-8.705,9.298-17.193,16.67-24.558c8.25-8.258,19.844-16.534,27.563-19.674c11.176-4.541,21.957-11.823,31.175-21.05
			c9.249-9.239,16.532-20.027,21.054-31.181c3.147-7.717,11.426-19.311,19.683-27.567c7.355-7.355,15.855-13.125,24.564-16.679
			c11.772-4.784,25.646-15.522,34.182-24.047c9.238-9.249,16.518-20.032,21.046-31.173c7.385-18.108,23.83-34.162,41.238-41.245
			c15.1-6.137,31.877-19.517,42.742-34.087C512.986,147.607,512.584,142.051,509.074,138.539z M24.186,366.513
			c6.901-6.207,15.628-12.551,23.376-15.712c11.148-4.514,21.934-11.793,31.19-21.05c8.519-8.518,19.261-22.393,24.052-34.181
			c3.555-8.727,9.318-17.218,16.676-24.566c8.247-8.257,19.84-16.532,27.562-19.674c23.155-9.412,43.174-29.9,52.228-52.231
			c3.146-7.715,11.425-19.31,19.683-27.567c7.355-7.356,15.855-13.126,24.564-16.678c11.768-4.782,25.644-15.52,34.183-24.049
			c9.239-9.25,16.518-20.032,21.045-31.172c7.25-17.779,23.492-34.022,41.247-41.244c11.983-4.869,25.363-14.58,35.355-25.287
			l28.271,28.271c-8.933,9.619-20.823,17.696-28.745,20.915c-23.025,9.393-43.083,29.765-52.219,52.227
			c-3.541,8.713-9.307,17.215-16.665,24.581c-8.268,8.258-19.866,16.528-27.583,19.664c-11.136,4.53-21.913,11.813-31.179,21.066
			c-8.51,8.521-19.245,22.384-24.05,34.163c-7.213,17.746-23.465,34.03-41.244,41.238c-11.805,4.814-25.669,15.561-34.163,24.065
			c-9.234,9.224-16.518,20-21.071,31.18c-3.122,7.702-11.394,19.296-19.665,27.568c-7.362,7.363-15.856,13.123-24.575,16.662
			c-10.005,4.08-21.515,12.452-29.983,20.102L24.186,366.513z M459.737,167.149c-22.574,9.185-42.875,29.301-52.229,52.231
			c-3.537,8.702-9.304,17.201-16.665,24.571c-8.27,8.261-19.865,16.53-27.582,19.667c-11.166,4.554-21.942,11.837-31.164,21.059
			c-8.515,8.513-19.255,22.375-24.068,34.176c-7.166,17.679-23.415,33.996-41.233,41.236c-11.798,4.8-25.667,15.547-34.171,24.059
			c-9.242,9.232-16.523,20.012-21.057,31.172c-3.138,7.719-11.41,19.316-19.669,27.576c-7.373,7.374-15.865,13.133-24.576,16.662
			c-10.312,4.205-21.403,12.238-30.009,20.087l-28.256-28.248c6.269-5.576,15.687-12.599,23.361-15.732
			c11.618-4.705,22.327-12.197,31.19-21.06c8.521-8.521,19.262-22.396,24.051-34.181c3.541-8.696,9.308-17.19,16.661-24.552
			c6.883-6.865,18.588-16.024,27.576-19.689c22.986-9.34,43.076-29.685,52.24-52.229c3.142-7.722,11.412-19.311,19.669-27.559
			c19.568-19.575,29.188-13.461,55.475-37.597c4.068-3.735,4.339-10.062,0.604-14.13c-3.733-4.069-10.062-4.339-14.13-0.604
			c-24.415,22.416-32.856,14.958-56.088,38.183c-8.516,8.506-19.257,22.371-24.057,34.172
			c-7.164,17.622-23.352,33.961-41.255,41.237c-16.24,6.623-43.661,26.84-55.222,55.229c-3.136,7.717-11.408,19.314-19.665,27.574
			c-7.04,7.034-15.503,12.999-24.582,16.675c-10.217,4.171-21.767,12.645-29.986,20.094l-28.265-28.265
			c7.687-6.833,16.898-13.099,23.36-15.735c11.161-4.529,21.943-11.808,31.182-21.045c8.533-8.534,19.281-22.416,24.052-34.181
			c3.548-8.715,9.315-17.206,16.685-24.567c8.243-8.253,19.84-16.534,27.555-19.68c22.728-9.216,42.987-29.469,52.233-52.224
			c3.146-7.709,11.421-19.305,19.67-27.564c7.387-7.379,15.885-13.149,24.569-16.683c11.782-4.788,25.658-15.524,34.191-24.048
			c9.234-9.246,16.514-20.031,21.049-31.191c7.204-17.709,23.435-33.976,41.233-41.235c10.358-4.209,24.281-13.54,35.349-25.292
			l28.285,28.285c-0.706,0.761-1.424,1.51-2.156,2.243c-8.928,8.904-19.535,15.812-26.595,18.676
			c-8.848,3.617-16.697,8.529-23.877,14.433c-4.266,3.507-4.882,9.81-1.374,14.076c3.505,4.265,9.81,4.882,14.076,1.374
			c5.642-4.634,11.797-8.528,18.72-11.359c11.582-4.698,24.299-14.189,33.183-23.045c0.736-0.736,1.457-1.49,2.171-2.249
			l28.278,28.279C480.08,155.308,469.261,163.277,459.737,167.149z"/>
	</g>
</g>
<g>
</g>
<g>
</g>
<g>
</g>
<g>
</g>
<g>
</g>
<g>
</g>
<g>
</g>
<g>
</g>
<g>
</g>
<g>
</g>
<g>
</g>
<g>
</g>
<g>
</g>
<g>
</g>
<g>
</g>
</symbol><symbol id="bacon" viewBox="0 0 512 512">
<g>
	<g>
		<g>
			<circle cx="375.27" cy="50.01" r="7.955"/>
			<circle cx="99.297" cy="217.688" r="7.954"/>
			<path d="M502.117,101.777l-81.371-81.371c-8.365-8.365-20.684-11.736-32.141-8.791l-30.139,7.739
				c-30.143,7.74-53.677,31.273-61.417,61.416c-6.379,24.844-25.774,44.24-50.619,50.62c-8.654,2.222-16.761,5.753-24.108,10.361
				c-3.272-5.599-5.751-11.598-7.375-17.924c-7.741-30.144-31.274-53.678-61.417-61.417l-30.138-7.739
				c-11.461-2.944-23.775,0.426-32.142,8.792L9.882,144.835c-8.647,8.648-11.884,20.854-8.656,32.651
				c3.228,11.797,12.226,20.656,24.085,23.701l0.193,0.049c24.844,6.38,44.24,25.775,50.619,50.621
				c2.206,8.588,5.715,16.68,10.412,24.146c-6.191,8.541-10.845,18.283-13.556,28.84l-7.739,30.138
				c-2.943,11.459,0.427,23.775,8.792,32.142l81.371,81.371c6.443,6.443,14.861,9.882,23.614,9.882c2.995,0,6.029-0.403,9.036-1.226
				c11.797-3.228,20.655-12.227,23.69-24.049l0.06-0.229c1.939-7.549,5.086-14.591,9.215-20.922
				c8.587,6.159,18.322,10.731,28.557,13.359c11.497,2.953,22.137,8.818,30.768,16.964c1.449,1.368,3.299,2.045,5.147,2.045
				c1.992,0,3.98-0.789,5.456-2.353c2.843-3.013,2.705-7.758-0.308-10.601c-10.473-9.883-23.383-17.001-37.333-20.583
				c-8.135-2.089-15.887-5.669-22.777-10.473c8.698-8.581,19.63-14.907,31.893-18.056c4.903-1.259,9.627-2.943,14.141-4.998
				c4.271,1.934,8.696,3.5,13.206,4.658l5.099,1.309c23.271,5.976,41.439,24.144,47.415,47.416l11.036,42.979l-7.329,7.328
				c-4.791,4.79-11.555,6.583-18.088,4.796c-6.535-1.788-11.441-6.773-13.132-13.357l-0.048-0.184
				c-0.75-2.922-1.664-5.832-2.717-8.647c-1.45-3.88-5.772-5.849-9.649-4.4c-3.88,1.45-5.851,5.771-4.4,9.649
				c0.867,2.32,1.62,4.718,2.244,7.15l0.048,0.184c3.042,11.846,11.899,20.845,23.696,24.071c3.008,0.823,6.041,1.226,9.036,1.226
				c8.752,0,17.172-3.44,23.615-9.883l81.37-81.37c8.365-8.366,11.734-20.683,8.792-32.141l-7.739-30.138
				c-7.74-30.143-31.273-53.677-61.417-61.417c-7.339-1.884-14.369-4.983-20.737-9.102c5.44-3.132,11.343-5.561,17.593-7.166
				c30.143-7.74,53.677-31.273,61.417-61.417c6.379-24.843,25.774-44.24,50.621-50.62l0.205-0.053
				c11.846-3.042,20.845-11.9,24.071-23.697C514.002,122.631,510.766,110.426,502.117,101.777z M101.859,74.07
				c4.635-4.634,11.458-6.5,17.805-4.871l30.138,7.739c24.843,6.38,44.239,25.775,50.619,50.621
				c2.124,8.268,5.452,16.076,9.888,23.308c-10.488,9.523-18.576,21.627-23.307,35.355c-4.525-6.456-7.876-13.688-9.853-21.391
				l-1.31-5.099c-7.336-28.57-29.642-50.876-58.213-58.213L83.239,92.69L101.859,74.07z M70.917,105.012l42.978,11.036
				c23.272,5.977,41.44,24.144,47.415,47.416l1.31,5.099c3.327,12.952,9.802,24.827,18.832,34.636
				c-6.279,14.542-17.273,26.492-31.106,33.972c-7.864-8.174-13.461-18.19-16.298-29.238l-1.31-5.099
				c-7.336-28.571-29.641-50.877-58.213-58.213l-34.388-8.83L70.917,105.012z M29.221,186.704l-0.193-0.049
				c-6.563-1.686-11.547-6.593-13.334-13.128c-1.788-6.535,0.005-13.296,4.796-18.087l7.328-7.329l42.979,11.036
				c23.271,5.976,41.439,24.144,47.415,47.416l1.31,5.099c2.985,11.621,8.456,22.312,16.031,31.446
				c-0.385,0.106-0.768,0.218-1.156,0.318c-14.3,3.672-27.107,10.902-37.451,20.702c-2.738-5.045-4.854-10.395-6.294-16.003
				C82.91,217.982,59.378,194.448,29.221,186.704z M155.188,383.848l-8.829,34.388l-30.778-30.778l11.036-42.979
				c5.975-23.271,24.142-41.439,47.415-47.415l5.1-1.31c28.57-7.336,50.876-29.641,58.213-58.213l1.309-5.098
				c5.976-23.271,24.144-41.439,47.417-47.415l5.098-1.31c24.273-6.233,43.95-22.974,53.984-45.931
				c1.659-3.795-0.073-8.216-3.868-9.875c-3.798-1.66-8.216,0.073-9.875,3.869c-8.172,18.698-24.198,32.333-43.972,37.41
				l-5.098,1.31c-28.57,7.336-50.877,29.642-58.214,58.213l-1.309,5.098c-5.976,23.271-24.144,41.439-47.415,47.415l-5.1,1.31
				c-28.571,7.336-50.878,29.642-58.213,58.212l-8.829,34.388l-18.621-18.621c-4.635-4.634-6.501-11.456-4.87-17.805l7.738-30.138
				c6.379-24.843,25.774-44.24,50.619-50.619c4.789-1.23,9.408-2.861,13.826-4.851c0.004-0.002,0.008-0.004,0.011-0.006
				c23.387-10.537,41.069-31.21,47.579-56.561c6.379-24.843,25.775-44.24,50.62-50.62c30.143-7.74,53.676-31.273,61.417-61.417
				c6.379-24.843,25.774-44.24,50.619-50.62l30.139-7.739c6.348-1.632,13.17,0.237,17.805,4.871l18.62,18.621l-34.388,8.83
				c-21.741,5.583-40.335,20.106-51.015,39.847c-1.971,3.643-0.615,8.193,3.028,10.164c1.134,0.614,2.356,0.905,3.562,0.905
				c2.665,0,5.246-1.424,6.603-3.933c8.698-16.08,23.844-27.909,41.553-32.456l42.979-11.036l30.778,30.778l-34.388,8.829
				c-28.571,7.336-50.878,29.642-58.213,58.212l-1.31,5.1c-5.975,23.271-24.143,41.439-47.415,47.416l-5.1,1.31
				c-28.57,7.336-50.876,29.641-58.213,58.213l-1.309,5.098c-5.976,23.272-24.143,41.439-47.417,47.415l-5.098,1.31
				C184.83,332.971,162.523,355.278,155.188,383.848z M365.641,461.293l-8.829-34.387c-7.336-28.571-29.642-50.877-58.213-58.213
				l-5.099-1.309c-0.114-0.029-0.225-0.067-0.339-0.097c11.282-8.664,20.311-20.089,26.123-33.297
				c4.375,2.009,8.918,3.624,13.585,4.822l5.099,1.309c23.272,5.977,41.44,24.144,47.415,47.416l11.036,42.979L365.641,461.293z
				 M373.874,301.01c24.844,6.38,44.239,25.775,50.619,50.62l7.739,30.139c1.631,6.348-0.235,13.17-4.871,17.805l-18.62,18.62
				l-8.829-34.387c-7.336-28.57-29.642-50.876-58.213-58.213l-5.099-1.309c-4.294-1.103-8.458-2.648-12.446-4.592
				c3.525-12.831,10.533-24.158,19.972-32.916C353.001,293.379,363.167,298.262,373.874,301.01z M496.307,130.47
				c-1.787,6.535-6.772,11.442-13.336,13.128l-0.205,0.053c-30.144,7.74-53.677,31.273-61.417,61.416
				c-6.38,24.844-25.775,44.24-50.619,50.62c-11.577,2.973-22.174,8.282-31.28,15.394c-0.009,0.007-0.019,0.015-0.028,0.022
				c-14.59,11.404-25.344,27.446-30.109,46c-6.38,24.844-25.774,44.24-50.619,50.62c-30.143,7.74-53.676,31.273-61.411,61.394
				l-0.059,0.229c-1.685,6.563-6.592,11.547-13.126,13.334c-6.536,1.788-13.297-0.004-18.088-4.795l-7.329-7.328l11.036-42.979
				c5.975-23.271,24.143-41.439,47.416-47.416l5.098-1.309c28.57-7.337,50.877-29.642,58.214-58.213l1.309-5.098
				c5.976-23.271,24.143-41.439,47.415-47.415l5.1-1.31c28.571-7.336,50.878-29.642,58.213-58.212l1.31-5.1
				c5.975-23.271,24.143-41.439,47.415-47.416l42.979-11.036l7.329,7.328C496.302,117.174,498.095,123.935,496.307,130.47z"/>
			<circle cx="328.492" cy="447.928" r="7.955"/>
			<circle cx="229.626" cy="182.643" r="7.955"/>
			<circle cx="359.36" cy="373.802" r="7.955"/>
			<circle cx="260.07" cy="350.077" r="7.955"/>
			<circle cx="421.72" cy="155.576" r="7.955"/>
			<circle cx="153.103" cy="330.666" r="7.955"/>
			<circle cx="336.447" cy="188.656" r="7.955"/>
		</g>
	</g>
</g>
<g>
</g>
<g>
</g>
<g>
</g>
<g>
</g>
<g>
</g>
<g>
</g>
<g>
</g>
<g>
</g>
<g>
</g>
<g>
</g>
<g>
</g>
<g>
</g>
<g>
</g>
<g>
</g>
<g>
</g>
</symbol><symbol id="beef" viewBox="0 0 512.005 512.005">
<g>
	<g>
		<rect x="68.267" y="124.244" width="17.067" height="17.067"/>
	</g>
</g>
<g>
	<g>
		<path d="M511.377,238.377c0.418-1.024,0.623-2.108,0.623-3.2v-93.867c0-32.939-26.803-59.733-59.733-59.733H179.2v17.067h273.067
			c23.526,0,42.667,19.14,42.667,42.667v92.211l-11.401,28.237c-4.173,10.317-4.173,21.683-0.009,31.983l10.906,27.145
			l-31.394,102.025h-17.758l15.394-92.476c0.452-2.714-0.427-5.478-2.381-7.432l-44.723-44.723
			c-7.962-7.945-12.518-18.961-12.51-30.225v-12.885h-17.067v12.885c-0.009,15.761,6.374,31.181,17.519,42.3l41.609,41.609
			l-16.341,98.074c-0.41,2.475,0.29,5.001,1.911,6.921s4.002,3.021,6.511,3.021h34.133c3.746,0,7.057-2.441,8.158-6.016
			l34.133-110.933c0.58-1.869,0.495-3.874-0.239-5.692l-12.041-29.969c-2.5-6.195-2.5-13.005,0-19.2L511.377,238.377z"/>
	</g>
</g>
<g>
	<g>
		<path d="M494.933,166.91v17.067c0,9.412-7.654,17.067-17.067,17.067s-17.067-7.654-17.067-17.067v-8.533
			c0-18.825-15.309-34.133-34.133-34.133h-25.6v17.067h25.6c9.412,0,17.067,7.654,17.067,17.067v8.533
			c0,18.825,15.309,34.133,34.133,34.133S512,202.802,512,183.977V166.91H494.933z"/>
	</g>
</g>
<g>
	<g>
		<path d="M33.536,73.044H8.533C3.823,73.044,0,76.867,0,81.577c0,16.102,2.449,35.891,21.973,46.387l8.533,4.011l7.262-15.462
			l-8.124-3.797c-7.441-4.002-11.153-10.615-12.228-22.605h16.23c7.646-0.435,14.694,3.089,19.652,8.764l12.86-11.213
			C57.899,78.198,45.628,72.805,33.536,73.044z"/>
	</g>
</g>
<g>
	<g>
		<path d="M236.22,294.91c-12.254-0.094-23.031,8.226-25.626,20.361l-21.333,107.64h-18.594v-121.95
			c-0.017-5.871-2.065-11.605-5.751-16.111l-60.322-74.325c-4.881-6.007-12.109-9.464-19.857-9.472H35.524
			c-10.146-0.034-18.432-8.311-18.458-18.441c0-3.226,0.828-6.409,2.432-9.25l38.835-70.025
			C65.587,92.312,79.121,86.91,91.17,89.675l25.6,8.533c2.748,0.905,5.769,0.375,8.038-1.442c9.335-7.492,21.99-9.327,33.237-4.753
			l14.959,5.76c-7.134,14.191-14.583,17.161-19.968,17.937h-16.503v17.067H153.6c0.35,0,0.7-0.017,1.058-0.051
			c16.666-2.057,29.005-14.037,37.717-36.625c0.811-2.116,0.751-4.463-0.162-6.537c-0.922-2.065-2.62-3.686-4.736-4.497l-23.134-8.9
			c-15.334-6.263-32.657-4.489-46.327,4.48l-22.212-7.373c-19.797-4.591-40.576,3.729-52.062,21.239L4.599,165.042
			C1.587,170.392,0,176.476,0,182.646c0.06,19.499,15.974,35.413,35.499,35.465h49.22c2.577,0.009,4.992,1.161,6.613,3.166
			l60.348,74.342c1.237,1.51,1.92,3.413,1.92,5.35v130.475c0,4.719,3.823,8.533,8.533,8.533h34.133c4.079,0,7.578-2.876,8.371-6.878
			l22.673-114.381c0.853-4.002,4.454-6.929,8.721-6.741h190.635V294.91H236.22z"/>
	</g>
</g>
<g>
</g>
<g>
</g>
<g>
</g>
<g>
</g>
<g>
</g>
<g>
</g>
<g>
</g>
<g>
</g>
<g>
</g>
<g>
</g>
<g>
</g>
<g>
</g>
<g>
</g>
<g>
</g>
<g>
</g>
</symbol><symbol id="cheese" viewBox="0 0 512 512">
<g transform="translate(0 -1)">
	<g>
		<g>
			<path d="M498.033,257.598c8.081-1.534,13.939-8.583,13.967-16.808v-26.45c0-0.186-0.094-0.341-0.106-0.524
				c-0.051-0.689-0.189-1.368-0.408-2.023c-0.243-1.096-0.793-2.101-1.586-2.896c-0.179-0.212-0.297-0.464-0.496-0.657
				c-0.734-0.725-1.593-1.309-2.537-1.724l-0.06-0.026l-0.037-0.016L303.15,118.04c-10.424-4.37-22.481-1.359-29.625,7.4
				c-8.225,9.735-21.187,14.079-33.617,11.266c-12.43-2.813-22.259-12.314-25.491-24.641c-1.077-4.239-1.351-8.643-0.808-12.983
				c1.526-11.101-4.537-21.858-14.825-26.3l-41.1-17.834c-7.964-3.501-16.997-3.672-25.087-0.475
				C99.95,67.207,70.943,87.785,48.138,114.39c-22.904,26.805-38.971,58.761-46.825,93.133l-1.108,4.95
				c-0.013,0.279-0.012,0.559,0.004,0.837c-0.092,0.338-0.161,0.682-0.208,1.029v213.333c0.02,18.843,15.29,34.113,34.133,34.133
				h231.254c8.198-0.002,15.242-5.818,16.796-13.867c2.506-11.813,12.932-20.263,25.008-20.267
				c12.075-0.004,22.508,8.439,25.021,20.25c1.549,8.056,8.596,13.88,16.8,13.884h128.854c18.843-0.02,34.113-15.29,34.133-34.133
				v-103.25c-0.019-8.199-5.841-15.237-13.892-16.792c-11.791-2.52-20.224-12.929-20.242-24.986
				C477.849,270.588,486.25,260.154,498.033,257.598z M61.087,125.507c20.985-24.486,47.68-43.425,77.725-55.142
				c3.896-1.529,8.24-1.445,12.075,0.233l41.108,17.842c3.291,1.458,5.205,4.931,4.679,8.492c-0.808,6.443-0.407,12.98,1.184,19.275
				c4.787,18.532,19.508,32.849,38.167,37.117s38.14-2.225,50.508-16.833c2.275-3.028,6.287-4.173,9.817-2.8l166.046,72.116h-443.1
				C26.935,176.209,41.228,148.745,61.087,125.507z M494.933,324.423v103.25c-0.011,9.421-7.645,17.056-17.067,17.067l-128.95-0.3
				c-4.181-19.778-21.671-33.906-41.887-33.833s-37.604,14.325-41.643,34.133H34.133c-9.421-0.011-17.056-7.646-17.067-17.067
				v-204.8h477.725l-0.3,18.025c-19.739,4.249-33.798,21.751-33.691,41.942C460.907,303.031,475.151,320.383,494.933,324.423z"/>
			<path d="M409.6,393.54c0.02,18.843,15.29,34.113,34.133,34.133c18.851,0,34.133-15.282,34.133-34.133
				s-15.282-34.133-34.133-34.133C424.882,359.407,409.6,374.689,409.6,393.54z M460.8,393.54c0,9.426-7.641,17.067-17.067,17.067
				s-17.067-7.641-17.067-17.067c0.011-9.421,7.646-17.056,17.067-17.067C453.159,376.473,460.8,384.114,460.8,393.54z"/>
			<path d="M196.267,282.607c-28.277,0-51.2,22.923-51.2,51.2c0.031,28.264,22.936,51.169,51.2,51.2c28.277,0,51.2-22.923,51.2-51.2
				S224.544,282.607,196.267,282.607z M196.267,367.94c-18.851,0-34.133-15.282-34.133-34.133
				c0.02-18.843,15.29-34.113,34.133-34.133c18.851,0,34.133,15.282,34.133,34.133S215.118,367.94,196.267,367.94z"/>
			<path d="M324.267,248.473c-23.564,0-42.667,19.102-42.667,42.667c0.028,23.553,19.114,42.639,42.667,42.667
				c23.564,0,42.667-19.103,42.667-42.667S347.831,248.473,324.267,248.473z M324.267,316.74c-14.138,0-25.6-11.461-25.6-25.6
				c0.015-14.132,11.468-25.585,25.6-25.6c14.138,0,25.6,11.461,25.6,25.6C349.867,305.279,338.405,316.74,324.267,316.74z"/>
			<path d="M102.4,291.14c0-14.138-11.462-25.6-25.6-25.6s-25.6,11.461-25.6,25.6c0.015,14.132,11.468,25.585,25.6,25.6
				C90.938,316.74,102.4,305.279,102.4,291.14z M68.267,291.14c0.005-4.711,3.822-8.529,8.533-8.533
				c4.713,0,8.533,3.821,8.533,8.533c0,4.713-3.82,8.533-8.533,8.533S68.267,295.853,68.267,291.14z"/>
			<path d="M93.867,367.94c-14.132,0.015-25.585,11.468-25.6,25.6c0,14.138,11.461,25.6,25.6,25.6c14.138,0,25.6-11.462,25.6-25.6
				S108.005,367.94,93.867,367.94z M93.867,402.073c-4.713,0-8.533-3.82-8.533-8.533s3.821-8.533,8.533-8.533
				c4.711,0.005,8.529,3.822,8.533,8.533C102.4,398.253,98.579,402.073,93.867,402.073z"/>
			<path d="M304.725,370.415c-3.421-3.158-8.695-3.158-12.117,0c-0.755,0.829-1.363,1.782-1.796,2.817
				c-0.906,2.066-0.906,4.417,0,6.483c0.78,2.141,2.467,3.828,4.608,4.608c2.067,0.911,4.421,0.911,6.487,0
				c1.034-0.433,1.987-1.039,2.817-1.792c1.577-1.623,2.464-3.794,2.475-6.057c0.029-1.119-0.205-2.229-0.683-3.242
				C306.084,372.198,305.478,371.245,304.725,370.415z"/>
			<path d="M213.333,265.54c2.855,0.03,5.531-1.385,7.115-3.761s1.86-5.39,0.735-8.014c-0.413-1.044-1.021-2-1.792-2.817
				c-2.453-2.425-6.126-3.133-9.304-1.792c-1.054,0.392-2.012,1.002-2.813,1.792c-0.755,0.829-1.363,1.782-1.796,2.817
				c-1.122,2.625-0.843,5.638,0.741,8.013C207.803,264.153,210.479,265.568,213.333,265.54z"/>
			<path d="M418.133,308.207c2.855,0.03,5.531-1.385,7.115-3.761c1.584-2.376,1.86-5.39,0.735-8.014
				c-1.251-3.247-4.372-5.389-7.852-5.389c-3.48,0-6.601,2.142-7.852,5.389c-1.122,2.625-0.844,5.638,0.74,8.013
				C412.604,306.819,415.279,308.234,418.133,308.207z"/>
		</g>
	</g>
</g>
<g>
</g>
<g>
</g>
<g>
</g>
<g>
</g>
<g>
</g>
<g>
</g>
<g>
</g>
<g>
</g>
<g>
</g>
<g>
</g>
<g>
</g>
<g>
</g>
<g>
</g>
<g>
</g>
<g>
</g>
</symbol><symbol id="chicken-1" viewBox="0 0 512.001 512.001">
<g>
	<g>
		<path d="M72.961,95.275c-2.381-1.579-5.41-1.852-8.055-0.717l-59.733,25.6c-3.14,1.34-5.171,4.429-5.171,7.842
			s2.031,6.502,5.171,7.842l59.733,25.6c1.075,0.461,2.219,0.691,3.362,0.691c1.647,0,3.285-0.478,4.693-1.408
			c2.398-1.579,3.84-4.258,3.84-7.125v-51.2C76.801,99.533,75.359,96.854,72.961,95.275z M59.735,140.656l-29.534-12.655
			l29.534-12.663V140.656z"/>
	</g>
</g>
<g>
	<g>
		<path d="M204.801,0.001h-42.667c-32.939,0-59.733,26.795-59.733,59.733c0,4.71,3.823,8.533,8.533,8.533h42.667
			c32.939,0,59.733-26.795,59.733-59.733C213.335,3.824,209.512,0.001,204.801,0.001z M153.601,51.201H120.33
			c3.959-19.447,21.205-34.133,41.805-34.133h33.271C191.447,36.515,174.209,51.201,153.601,51.201z"/>
	</g>
</g>
<g>
	<g>
		<path d="M128.001,93.867c-14.114,0-25.6,11.486-25.6,25.6s11.486,25.6,25.6,25.6s25.6-11.486,25.6-25.6
			S142.116,93.867,128.001,93.867z M128.001,128.001c-4.702,0-8.533-3.831-8.533-8.533s3.831-8.533,8.533-8.533
			c4.702,0,8.533,3.831,8.533,8.533S132.703,128.001,128.001,128.001z"/>
	</g>
</g>
<g>
	<g>
		<rect x="221.868" y="435.201" width="17.067" height="68.267"/>
	</g>
</g>
<g>
	<g>
		<rect x="187.735" y="494.934" width="136.533" height="17.067"/>
	</g>
</g>
<g>
	<g>
		<rect x="273.068" y="435.201" width="17.067" height="68.267"/>
	</g>
</g>
<g>
	<g>
		<rect x="230.401" y="460.801" width="25.6" height="17.067"/>
	</g>
</g>
<g>
	<g>
		<rect x="281.601" y="460.801" width="25.6" height="17.067"/>
	</g>
</g>
<g>
	<g>
		<path d="M72.552,146.219c-2.628-1.527-5.879-1.536-8.525-0.017l-44.74,25.609c-11.708,6.758-19.098,19.354-19.285,32.99v3.942
			C-0.084,219,3.824,228.668,11.018,235.99c7.194,7.313,16.802,11.392,27.127,11.477h0.256c21.18,0,38.4-17.22,38.4-38.4v-55.467
			C76.801,150.563,75.18,147.747,72.552,146.219z M59.735,209.067c0,11.768-9.566,21.333-21.333,21.333v8.533l-0.179-8.533
			c-5.7-0.051-11.034-2.313-15.036-6.374c-3.994-4.062-6.17-9.438-6.118-15.206v-3.9c0.102-7.535,4.224-14.558,10.726-18.313
			l31.94-18.287V209.067z"/>
	</g>
</g>
<g>
	<g>
		<path d="M512.001,59.734v-8.533h-76.8c-0.009,0-0.009,0-0.026,0c-60.279,0-115.994,35.174-141.901,89.6l-37.274,78.285
			L196.447,94.089c-10.991-24.183-34.253-40.602-60.911-42.871c-19.072-1.212-37.367,5.094-51.652,17.698
			C69.599,81.528,61.074,98.945,59.88,117.94c-0.102,1.527-0.145,3.063-0.145,4.599v129.203c0.06,105.805,86.178,191.94,192,191.991
			c102.844,0,186.325-91.665,191.727-171.11c38.477-4.13,68.54-36.796,68.54-76.356v-8.533h-28.578
			c17.417-14.089,28.578-35.635,28.578-59.733v-8.533h-28.578C500.84,105.379,512.001,83.832,512.001,59.734z M494.329,136.534
			c-4.156,28.911-29.082,51.2-59.128,51.2v17.067h59.128c-4.156,28.911-29.082,51.2-59.128,51.2h-8.533v8.533
			c0,72.986-80.725,162.133-174.933,162.133c-96.41-0.051-174.891-78.524-174.933-174.933V122.539c0-1.169,0.034-2.33,0.111-3.516
			c0.905-14.473,7.39-27.716,18.261-37.308c10.018-8.832,22.639-13.585,35.729-13.585c1.118,0,2.244,0.034,3.379,0.102
			c20.318,1.732,38.187,14.345,46.694,33.058l75.034,157.483l52.676-110.635c23.1-48.521,72.747-79.872,126.49-79.872
			c0.009,0,0.017,0,0.026,0h59.128c-4.156,28.911-29.082,51.2-59.128,51.2v17.067H494.329z"/>
	</g>
</g>
<g>
	<g>
		<path d="M281.601,256.001v17.067h100.284c-7.868,24.883-31.283,42.633-58.061,42.667l-0.162,17.067c0.06,0,0.111,0,0.179,0h23.91
			c-7.868,24.909-31.326,42.667-58.138,42.667c-0.026,0-0.051,0-0.077,0h-33.536c-61.167,0-110.933-49.766-110.933-110.933v-8.533
			h-17.067v8.533c0,70.579,57.421,128,128,128h33.527c0.034,0,0.06,0,0.094,0c38.622,0,71.825-28.826,77.227-67.072l0.896-6.374
			c17.545-12.058,30.089-31.112,33.237-53.359l1.374-9.728H281.601z"/>
	</g>
</g>
<g>
</g>
<g>
</g>
<g>
</g>
<g>
</g>
<g>
</g>
<g>
</g>
<g>
</g>
<g>
</g>
<g>
</g>
<g>
</g>
<g>
</g>
<g>
</g>
<g>
</g>
<g>
</g>
<g>
</g>
</symbol><symbol id="chicken" viewBox="0 0 512 512"><path d="M38.566,226.524c-1.773,6.146-3.234,16.026,1.371,25.452,4.4,9,13.011,15.28,25.613,18.712,13.409,45.769,32.841,83.082,57.8,110.956,33,36.867,75.05,56.417,125.051,58.207L261.205,474l-30.774,6.155a8,8,0,1,0,3.138,15.69l74.008-14.8,5.268,10.535a8,8,0,1,0,14.31-7.156l-8-16a8.005,8.005,0,0,0-8.724-4.267L277.1,470.821l-11.766-31.37a203.1,203.1,0,0,0,88.275-30.945c28.49-18.291,51.477-43.434,68.324-74.728,19.97-37.1,31.256-82.935,33.591-136.333.925-.218,1.848-.466,2.766-.775a22.32,22.32,0,0,0,14.606-14.8c2.33-7.493,1.006-16.66-3.219-22.293L464,152h24a8,8,0,0,0,7.845-9.569c-4.934-24.67-20.528-33.819-32.74-37.149a53.818,53.818,0,0,0-7.578-1.476c-.278-1.584-.633-3.224-1.091-4.9a33.547,33.547,0,0,0,15.881-19.5,23.594,23.594,0,0,0-3.339-21.438A24.131,24.131,0,0,0,447.48,48h-.851A24.042,24.042,0,0,0,424,32h-1.371A24.042,24.042,0,0,0,400,16H384a8,8,0,0,0-8,8V69.483c-25.135,12.759-35.251,45.118-42.463,68.2-2.511,8.035-5.852,18.73-8.426,22.316H89.45L26.809,136.51a8,8,0,0,0-10.728,6.358C15.743,145.232,8.531,198.574,38.566,226.524ZM457.62,177.116a6.377,6.377,0,0,1-4.432,4.39,14.355,14.355,0,0,1-10.456-.61,7.87,7.87,0,0,1-4.6-5.232,7.984,7.984,0,0,1,1.32-6.939L448,157.333l8.879,11.839C457.671,170.228,458.624,173.887,457.62,177.116Zm1.737-56.268A26.768,26.768,0,0,1,477.133,136H448V119.351A41.581,41.581,0,0,1,459.357,120.848ZM392,32h8a8.009,8.009,0,0,1,8,8,8,8,0,0,0,8,8h8a8.009,8.009,0,0,1,8,8,8,8,0,0,0,8,8h7.48a7.98,7.98,0,0,1,6.532,3.345,7.757,7.757,0,0,1,1.113,7.044,17.86,17.86,0,0,1-7.5,9.919c-.715-1.011-1.471-2.012-2.3-2.992C435.562,69.826,420.312,64,400,64a58.749,58.749,0,0,0-8,.535ZM348.809,142.455C359.485,108.285,370.707,80,400,80c15.786,0,34.485,4.4,39.252,24.012-.467.075-.753.13-.821.143A8,8,0,0,0,432,112v32a7.964,7.964,0,0,0,2.022,5.3l-7.366,9.821a23.992,23.992,0,0,0,9.94,36.549q1.465.607,2.928,1.068c-2.219,50.732-12.765,94.11-31.424,128.982-15.44,28.853-36.464,52.035-62.486,68.9C301.02,423.525,256.433,424,256,424c-102.228,0-150.225-78.87-172.715-150.009l33.089,5.515c10.647,9.42,64.3,53.83,129.183,53.829q3.607,0,7.263-.187c39.442-2.044,74.845-20.854,105.225-55.908,28.155-32.483,37.534-59.679,27.875-80.833-5.964-13.061-18.743-22.855-37.982-29.108-2.452-.8-4.928-1.506-7.41-2.144C343.524,159.349,345.948,151.609,348.809,142.455ZM296,176c46.459,0,69.394,13.975,75.366,27.054,6.728,14.735-2.059,36.764-25.411,63.707-27.4,31.609-58.977,48.568-93.868,50.4-54.494,2.876-103.25-31.877-120.234-45.581,19.284-18.712,79.286-75.439,118.078-95.583ZM95.2,176H219.4c-37.9,26.087-81.869,67.728-98.41,83.812C111.523,245.872,92.615,212.986,95.2,176ZM31.191,155.241,79.356,173.3c-3.129,36.8,12.051,69.234,23.293,87.7l-29.211-4.868C63.422,254.1,57,250.369,54.35,245.027c-3.827-7.711.779-17.394.8-17.448A8,8,0,0,0,52.8,217.6C32.615,202.461,30.7,171.326,31.191,155.241Z"/><circle cx="408" cy="112" r="8"/></symbol><symbol id="chili" viewBox="0 0 512 512">
<g>
	<g>
		<path d="M484.856,146.805c26.511-31.902,26.752-81.216,26.746-83.54l-29.947,0.064c0.027,12.697-3.971,47.424-21.693,66.442
			c-28.37-13.485-64.809-15.241-96.351-3.307c-67.077,25.387-93.382,135.544-170.238,159.929
			c-58.242,18.484-122.104,2.529-157.76,7.334c-88.653,11.928-6.672,155.017,189.046,155.009
			C489.242,448.734,557.352,217.323,484.856,146.805z M35.897,343.801c-4.386-6.901-6.21-13.024-5.137-17.239
			c1.594-6.277,47.925-2.813,50.589-2.656c130.737,7.665,164.595-16.239,229.031-104.955c11.266-15.509,22.193-30.546,33.573-42.481
			c7.699,19.101,7.624,25.292,9.737,42.653c15.592-2.921,36.413-7.288,56.031-5.933c6.27,23.122,5.955,35.807,6.768,57.277
			c18.878-6.471,38.181-14.034,60.435-13.411C433.609,451.453,107.968,457.227,35.897,343.801z M481.195,227.281
			c-13.254-0.886-26.83,1.097-37.276,3.371c-2.892-19.838-8.21-35.08-8.5-35.899c-3.442-9.755-0.661-7.272-10.744-9.605
			c-14.408-3.335-33.335-2.107-46.299-0.568c-2.707-9.746-6.547-19.449-10.095-27.437
			C400.051,140.646,487.292,139.544,481.195,227.281z"/>
	</g>
</g>
<g>
</g>
<g>
</g>
<g>
</g>
<g>
</g>
<g>
</g>
<g>
</g>
<g>
</g>
<g>
</g>
<g>
</g>
<g>
</g>
<g>
</g>
<g>
</g>
<g>
</g>
<g>
</g>
<g>
</g>
</symbol><symbol id="fast-food" viewBox="0 0 511.983 511.983"><path d="m459.754 379.447c-15.098-15.097-27.762-18.872-38.937-22.202-7.533-2.245-13.483-4.019-21.034-11.569s-9.324-13.5-11.569-21.035c-.325-1.09-.659-2.199-1.002-3.318l46.468-46.468c7.672-7.672 7.672-20.155 0-27.828-13.207-13.206-24.255-16.499-34.004-19.404-6.271-1.869-11.224-3.345-17.448-9.569-6.224-6.223-7.7-11.176-9.568-17.449-2.905-9.748-6.198-20.796-19.405-34.002-13.206-13.207-24.254-16.5-34.004-19.405-6.271-1.869-11.224-3.345-17.448-9.567-6.223-6.224-7.699-11.177-9.568-17.45-2.905-9.748-6.198-20.796-19.405-34.003-13.206-13.205-24.252-16.498-34.004-19.404-6.271-1.868-11.224-3.344-17.448-9.568-6.223-6.223-7.699-11.176-9.57-17.453-2.905-9.747-6.198-20.794-19.403-33.999-7.673-7.672-20.155-7.672-27.828 0l-82.553 82.554c-7.67 7.671-7.67 20.154.001 27.827 6.223 6.223 7.699 11.176 9.569 17.448 1.449 4.863 2.995 10.05 5.821 15.667l-45.196 45.195c-8.296 8.296-8.296 21.795 0 30.094 7.55 7.549 9.323 13.5 11.568 21.034 3.33 11.173 7.104 23.837 22.202 38.937 15.099 15.099 27.763 18.872 38.937 22.201 7.533 2.245 13.483 4.018 21.033 11.568 7.55 7.551 9.324 13.502 11.569 21.035 3.329 11.173 7.103 23.837 22.201 38.936 15.098 15.097 27.761 18.871 38.937 22.202 7.533 2.245 13.483 4.018 21.034 11.568 7.552 7.551 9.324 13.501 11.57 21.038 3.33 11.173 7.104 23.836 22.2 38.931 15.097 15.098 27.762 18.872 38.938 22.203 7.533 2.245 13.482 4.018 21.033 11.569 4.148 4.148 9.597 6.222 15.046 6.222s10.898-2.074 15.046-6.222l96.222-96.222c4.019-4.019 6.232-9.363 6.232-15.047-.001-5.683-2.214-11.026-6.233-15.045zm-281.263-359.321c9.434 9.515 11.621 16.854 14.152 25.346 2.134 7.162 4.791 16.075 14.593 25.876 9.803 9.803 18.716 12.459 25.882 14.595 8.555 2.55 15.943 4.752 25.57 14.378 9.627 9.628 11.83 17.017 14.38 25.575 2.134 7.162 4.79 16.075 14.593 25.878s18.716 12.458 25.879 14.593c8.556 2.55 15.945 4.752 25.572 14.379s11.83 17.017 14.38 25.574c2.134 7.162 4.791 16.075 14.593 25.878 9.803 9.803 18.716 12.459 25.879 14.594 8.488 2.53 15.828 4.717 25.343 14.151l-18.12 18.12c-10.5-8.415-19.53-11.336-27.67-13.964-6.624-2.14-11.856-3.83-18.618-10.592-6.763-6.763-8.453-11.996-10.593-18.622-3.23-10.003-6.892-21.341-20.661-35.111-13.77-13.769-25.107-17.43-35.115-20.662-6.624-2.14-11.856-3.83-18.618-10.592-6.763-6.762-8.453-11.994-10.594-18.623-2.569-7.955-5.48-16.971-13.681-27.319-3.43-4.328-9.719-5.057-14.048-1.626-4.329 3.43-5.057 9.72-1.626 14.048 5.955 7.514 7.979 13.783 10.326 21.049 2.489 7.707 5.312 16.443 15.481 26.613 10.17 10.169 18.906 12.992 26.619 15.483 8.99 2.903 16.753 5.41 27.113 15.77 10.361 10.361 12.868 18.125 15.771 27.117 2.489 7.708 5.311 16.445 15.482 26.617 10.171 10.17 18.906 12.992 26.618 15.482 6.678 2.157 12.673 4.093 19.558 9.186l-18.369 18.369c-7.016-5.073-13.302-7.108-19.011-8.952-8.989-2.903-16.752-5.41-27.112-15.77s-12.867-18.123-15.771-27.115c-2.49-7.709-5.311-16.446-15.483-26.618-10.171-10.171-18.908-12.992-26.619-15.483-8.989-2.903-16.753-5.41-27.114-15.771s-12.868-18.125-15.772-27.118c-2.489-7.708-5.311-16.444-15.482-26.615-10.172-10.171-18.909-12.993-26.618-15.483-8.989-2.903-16.753-5.41-27.114-15.771-10.361-10.36-12.868-18.124-15.771-27.115-1.844-5.709-3.876-11.993-8.95-19.009l18.367-18.367c5.091 6.883 7.029 12.877 9.185 19.556.65 2.014 1.323 4.096 2.167 6.306 1.522 3.985 5.317 6.434 9.343 6.434 1.187 0 2.394-.213 3.567-.662 5.159-1.971 7.743-7.751 5.772-12.911-.656-1.717-1.22-3.463-1.817-5.314-2.627-8.135-5.548-17.164-13.963-27.663zm-65.188 65.188c2.02 3.479 3.118 6.855 4.363 10.709 3.23 10.003 6.891 21.341 20.661 35.111s25.108 17.431 35.111 20.661c6.625 2.14 11.858 3.83 18.622 10.593 6.763 6.762 8.453 11.995 10.593 18.622 3.23 10.003 6.891 21.341 20.661 35.11 13.769 13.77 25.107 17.431 35.113 20.662 6.625 2.139 11.857 3.829 18.62 10.592 6.764 6.763 8.454 11.997 10.594 18.624 3.23 10.003 6.891 21.34 20.66 35.109 13.768 13.768 25.105 17.429 35.11 20.661 3.856 1.245 7.232 2.343 10.71 4.363l-16.907 16.907c-9.713-9.617-18.543-12.248-25.653-14.367-8.555-2.55-15.943-4.751-25.57-14.379-9.627-9.627-11.829-17.016-14.38-25.576-2.134-7.161-4.791-16.074-14.593-25.876-9.803-9.802-18.715-12.458-25.878-14.593-8.556-2.55-15.946-4.752-25.574-14.379-9.628-9.629-11.83-17.018-14.38-25.577-2.134-7.161-4.791-16.074-14.593-25.875-9.803-9.802-18.715-12.458-25.88-14.594-8.556-2.549-15.944-4.751-25.571-14.379-9.628-9.628-11.83-17.017-14.381-25.575-2.118-7.106-4.749-15.936-14.365-25.647zm-2.304 82.272c13.206 13.207 24.254 16.499 34.005 19.405 6.271 1.869 11.223 3.345 17.447 9.568 6.223 6.223 7.699 11.175 9.569 17.448 2.904 9.748 6.196 20.796 19.404 34.004 13.208 13.207 24.256 16.5 34.005 19.405 6.271 1.869 11.223 3.345 17.446 9.568 6.224 6.223 7.7 11.176 9.57 17.449 2.905 9.748 6.197 20.796 19.403 34.002 13.206 13.207 24.253 16.499 34.004 19.405 6.271 1.869 11.224 3.345 17.448 9.569 3.836 3.836 8.875 5.754 13.914 5.754 2.245 0 4.485-.403 6.624-1.165.184.566.368 1.136.553 1.71 2.844 8.805 6.068 18.785 17.64 30.355 11.574 11.574 21.555 14.797 30.366 17.643 8.42 2.72 15.935 5.163 24.789 12.117l-40.246 40.246c-8.442-6.385-15.987-8.839-22.824-11.047-10.68-3.45-19.903-6.429-32.259-18.785-12.356-12.355-15.335-21.58-18.788-32.268-2.844-8.806-6.067-18.788-17.641-30.361-11.573-11.573-21.554-14.796-30.366-17.643-10.681-3.449-19.906-6.428-32.263-18.786-12.359-12.358-15.337-21.583-18.787-32.268-2.844-8.807-6.068-18.788-17.642-30.362-11.575-11.574-21.556-14.797-30.366-17.642-10.681-3.449-19.906-6.428-32.263-18.785-12.359-12.359-15.338-21.584-18.789-32.271-2.206-6.831-4.659-14.373-11.043-22.812l15.299-15.299c.579.612 1.17 1.226 1.791 1.846zm236.583 324.033c-11.129-11.13-20.869-14.033-29.466-16.594-10.188-3.036-18.987-5.658-30.505-17.177-11.517-11.517-14.139-20.314-17.176-30.503-2.561-8.594-5.463-18.335-16.594-29.466-11.13-11.129-20.87-14.032-29.466-16.594-10.188-3.036-18.986-5.658-30.504-17.176-11.519-11.519-14.141-20.317-17.177-30.505-2.561-8.594-5.463-18.334-16.594-29.466-11.129-11.129-20.87-14.032-29.465-16.593-10.188-3.036-18.986-5.657-30.505-17.176-11.519-11.52-14.141-20.318-17.177-30.507-2.561-8.594-5.464-18.335-16.593-29.462-.499-.499-.499-1.311 0-1.81l13.214-13.214c3.173 4.834 4.647 9.365 6.347 14.629 3.708 11.481 7.91 24.494 23.677 40.262 15.766 15.767 28.778 19.969 40.262 23.677 7.934 2.562 14.201 4.586 22.366 12.751 8.166 8.165 10.189 14.432 12.752 22.367 3.707 11.481 7.909 24.495 23.677 40.262 15.766 15.767 28.778 19.969 40.264 23.678 7.933 2.562 14.2 4.586 22.364 12.751 8.165 8.165 10.189 14.432 12.754 22.374 3.708 11.48 7.91 24.492 23.675 40.255 15.764 15.765 28.775 19.967 40.263 23.677 5.263 1.7 9.793 3.172 14.628 6.347l-13.215 13.215c-.496.495-1.308.496-1.806-.002zm98.03-96.222-14.202 14.202c-12.515-10.353-23.234-13.814-32.871-16.927-7.934-2.562-14.201-4.585-22.366-12.751-8.164-8.163-10.188-14.428-12.751-22.366-.97-3.005-1.964-6.073-3.178-9.262l11.009-11.01c2.421 6.816 6.148 14.294 14.389 22.535 11.129 11.128 20.869 14.032 29.464 16.593 10.188 3.037 18.988 5.659 30.506 17.177.248.249.374.552.374.904s-.126.657-.374.905z"/><path d="m200.484 114.643c5.523 0 10-4.477 10-10s-4.477-10-10-10h-.007c-5.523 0-9.996 4.477-9.996 10s4.48 10 10.003 10z"/></symbol><symbol id="pepper" viewBox="0 0 511.999 511.999">
<g>
	<g>
		<path d="M511.162,10.258c-2.62-7.857-11.112-12.103-18.969-9.485c-38.244,12.748-80.085,44.329-103.996,76.563
			c-39.49-20.315-89.266-13.956-122.313,19.088c-8.518,8.518-17.352,20.773-21.872,31.945l-66.516,165.228
			C127.455,417.902,25.094,467.336,5.017,485.977c-3.356,3.038-5.26,7.519-4.912,12.239c0.501,6.777,5.563,12.397,12.241,13.657
			c7.933,1.497,85.396-10.103,165.863-42.347c107.02-42.885,192.593-119.875,245.234-229.783l11.367-23.733
			c19.198-40.085,10.972-88.143-20.47-119.584c-0.567-0.567-1.142-1.124-1.719-1.676c20.234-27.089,56.831-54.78,89.056-65.522
			C509.534,26.608,513.78,18.115,511.162,10.258z M171.543,439.858c-35.149,14.511-74.311,31.158-99.7,35.932
			c39.376-29.123,99.5-86.596,133.478-170.992l59.282-147.256c21.022,15.87,48.125,21.716,73.683,16.14
			c4.132,14.785,12.013,28.365,23.035,39.386c9.148,9.148,19.905,16.069,31.72,20.531
			C345.244,329.513,270.769,398.896,171.543,439.858z M407.761,203.053l-1.614,3.369c-8.848-2.901-16.885-7.828-23.618-14.561
			c-10.367-10.368-16.567-24.128-17.457-38.745c-0.301-4.934-3.013-9.403-7.251-11.947c-4.238-2.544-9.459-2.835-13.954-0.78
			c-22.208,10.154-48.645,5.664-66.291-11.106c2.76-4.161,5.93-8.063,9.517-11.65c29.235-29.234,76.805-29.235,106.04,0
			C415.595,140.094,421.473,174.422,407.761,203.053z"/>
	</g>
</g>
<g>
</g>
<g>
</g>
<g>
</g>
<g>
</g>
<g>
</g>
<g>
</g>
<g>
</g>
<g>
</g>
<g>
</g>
<g>
</g>
<g>
</g>
<g>
</g>
<g>
</g>
<g>
</g>
<g>
</g>
</symbol><symbol id="pork-2" viewBox="0 0 512 512"><path d="M496,264c0-28.567-7.026-54.255-20.635-76.293,12.222-11.572,28.241-34.564,13.439-67.8,5.825-14.409,9.276-40.137-12.366-54.565a8,8,0,1,0-8.876,13.312c8.275,5.517,10.095,13.862,9.63,21.309a24,24,0,1,0,.951,39.409c2.473,15.283-3.893,26.856-12.086,35.119A152.04,152.04,0,0,0,430.4,142.316C392.3,117.25,340.289,104,280,104c-49.018,0-96.057,9.376-133.639,26.524-12.154-28.315-39.521-34.114-40.792-34.369A8,8,0,0,0,96,104c0,4.15-4.271,14.642-7.155,20.422-7.537,15.075-6.961,31.323,1.5,46.335-5.139,6.54-8.531,13.013-10.108,19.3C74.291,213.853,58.64,222.173,54.48,224H40a24.027,24.027,0,0,0-24,24v16a24.027,24.027,0,0,0,24,24H53.227c26.329,20.266,52.5,21.314,70.034,18.518A98.339,98.339,0,0,0,144,300.791v90.226l-7.761,31.043A8,8,0,0,0,144,432h48a8,8,0,0,0,8-8V393.3l20.916-62.749A238.132,238.132,0,0,0,341.235,342.9a221.9,221.9,0,0,0,45.926-12.122l20.513,61.539-7.435,29.739A8,8,0,0,0,408,432h48a8,8,0,0,0,8-8V392.983L495.761,265.94A7.977,7.977,0,0,0,496,264ZM464,128a8,8,0,1,1,8-8A8.009,8.009,0,0,1,464,128ZM32,264V248a8.009,8.009,0,0,1,8-8h8v32H40A8.009,8.009,0,0,1,32,264ZM154.246,416l4-16H184v16Zm264,0,4-16H448v16Zm31.508-32H421.767L399.59,317.47a7.95,7.95,0,0,0-1.483-2.616l-.029-.035c-.144-.169-.294-.33-.451-.486-.052-.052-.105-.1-.158-.153-.128-.12-.258-.237-.394-.348-.1-.081-.2-.157-.3-.233s-.211-.157-.32-.23c-.149-.1-.3-.194-.461-.286-.072-.041-.142-.085-.215-.125-.057-.03-.11-.066-.168-.1C394.484,312.284,368,298.318,368,264a8,8,0,0,0-16,0c0,27.214,13.1,44.49,23.6,53.974a212.6,212.6,0,0,1-37.452,9.217,222.1,222.1,0,0,1-119.07-14.576,8,8,0,0,0-10.667,4.855L186.233,384H160V288a8.01,8.01,0,0,0-12.316-6.735C145.951,282.367,105.7,307.3,64,276.1V237.108c8.659-4.662,25.149-16.722,31.76-43.162,1.285-5.126,4.882-11.044,10.4-17.115a8,8,0,0,0,.622-9.985c-8.247-11.721-9.468-23.586-3.627-35.268a119.207,119.207,0,0,0,6.9-16.972,43.861,43.861,0,0,1,23.952,29.071,8,8,0,0,0,11.345,5.08C181.979,130.213,229.8,120,280,120c56.338,0,106.627,12.672,141.6,35.684C460.08,181,479.724,217.11,480,263.027Z"/><circle cx="104" cy="232" r="8"/></symbol><symbol id="pork" viewBox="0 0 512 512">
<g>
	<g>
		<path d="M392.533,93.867h-197.47c0,0,0,0-0.009,0c-49.169,0-94.566,28.715-115.635,73.131l-29.884,62.933
			C42.112,245.76,26.018,255.991,8.533,256C3.814,256,0,259.823,0,264.533V307.2c0,4.25,3.123,7.851,7.322,8.448l109.227,15.616
			c1.655,0.239,2.91,1.69,2.918,3.328V409.6c0,4.719,3.823,8.533,8.533,8.533h34.133c4.07,0,7.569-2.876,8.363-6.861l13.995-70.033
			c0.375-1.843,2.185-3.055,4.762-2.415c29.295,12.86,60.348,19.439,92.348,19.575c87.859,0,124.006-35.132,125.5-36.634
			l-12.032-12.1c-0.324,0.316-33.348,31.667-113.434,31.667c-29.611-0.119-58.385-6.221-85.504-18.133
			c-1.348-0.589-2.756-1.041-4.207-1.34c-11.102-2.27-21.905,4.915-24.166,16.009l-12.621,63.198h-18.603v-66.509
			c-0.043-10.069-7.595-18.756-17.57-20.19L17.067,299.802v-27.324c20.659-2.893,38.912-16.102,47.898-35.251l29.867-62.899
			c18.278-38.511,57.609-63.394,100.233-63.394h0.009h197.461c56.465,0,102.4,45.935,102.4,102.4H512
			C512,147.456,458.411,93.867,392.533,93.867z"/>
	</g>
</g>
<g>
	<g>
		<path d="M105.054,134.187l11.759-12.373c-12.134-11.529-28.015-18.415-45.218-19.413H34.133c-4.71,0-8.533,3.823-8.533,8.533
			c0,20.719,3.465,46.148,30.49,58.923c0.358,0.162,0.734,0.307,1.109,0.427l27.392,8.533l5.069-16.29l-26.795-8.354
			c-12.689-6.187-18.62-16.273-19.917-34.705L71.1,119.45C83.78,120.201,95.838,125.431,105.054,134.187z"/>
	</g>
</g>
<g>
	<g>
		<rect x="93.867" y="238.933" width="17.067" height="17.067"/>
	</g>
</g>
<g>
	<g>
		<path d="M213.316,175.437c-17.783,16.998-52.693,20.156-72.661,7.262l20.07-20.395c10.965-10.931,25.532-17.05,41.011-17.229
			l-0.196-17.067c-19.951,0.23-38.724,8.115-52.915,22.255l-26.709,27.136c-1.604,1.638-2.492,3.849-2.449,6.144
			s1.007,4.471,2.679,6.05c1.724,1.621,3.439,3.14,5.316,4.625c11.708,9.096,27.46,13.525,43.529,13.525
			c19.942,0,40.363-6.827,54.127-19.977L213.316,175.437z"/>
	</g>
</g>
<g>
	<g>
		<path d="M494.933,213.333c0,4.702-3.823,8.533-8.533,8.533s-8.533-3.831-8.533-8.533v-17.067c0-14.114-11.486-25.6-25.6-25.6
			c-14.114,0-25.6,11.486-25.6,25.6v8.533h17.067v-8.533c0-4.702,3.823-8.533,8.533-8.533c4.71,0,8.533,3.831,8.533,8.533v17.067
			c0,14.114,11.486,25.6,25.6,25.6s25.6-11.486,25.6-25.6H494.933z"/>
	</g>
</g>
<g>
	<g>
		<path d="M502.05,281.668c6.451-20.608,9.788-42.035,9.95-63.727v-4.608h-17.067v4.548c-0.145,19.951-3.226,39.697-9.233,58.931
			c-1.195,4.233-2.202,8.098-2.756,11.187c-3.669,21.171,0.009,42.769,10.342,61.44l-36.881,51.644l-23.612,0.043l26.88-47.019
			c1.911-3.337,1.348-7.543-1.374-10.266l-6.767-6.767c-11.281-10.897-23.953-20.241-37.811-27.87
			c-17.178-9.011-28.305-25.941-29.747-45.303l-17.016,1.263c1.886,25.276,16.401,47.386,38.69,59.068
			c12.39,6.818,23.834,15.266,33.929,25.011l2.048,2.048l-23.697,41.446c-1.417,2.551-2.167,5.427-2.167,8.294
			c-0.017,9.421,7.629,17.084,17.05,17.101H460.8c2.756,0,5.342-1.331,6.938-3.576l42.667-59.733
			c2.022-2.833,2.125-6.605,0.256-9.54c-10.308-16.162-14.182-35.473-10.914-54.315C500.215,288.367,501.103,285.064,502.05,281.668
			z"/>
	</g>
</g>
<g>
</g>
<g>
</g>
<g>
</g>
<g>
</g>
<g>
</g>
<g>
</g>
<g>
</g>
<g>
</g>
<g>
</g>
<g>
</g>
<g>
</g>
<g>
</g>
<g>
</g>
<g>
</g>
<g>
</g>
</symbol><symbol id="salt" viewBox="0 0 512.00169 512"><path d="m130.203125 480.78125c3.898437-3.910156 3.898437-10.238281 0-14.148438-3.910156-3.902343-10.238281-3.902343-14.140625 0-3.90625 3.910157-3.90625 10.238282 0 14.148438 3.898438 3.898438 10.230469 3.898438 14.140625 0zm0 0"/><path d="m101.914062 494.917969c-3.898437-3.910157-10.230468-3.910157-14.140624 0-3.898438 3.902343-3.898438 10.242187 0 14.140625 3.910156 3.910156 10.242187 3.910156 14.140624 0 3.910157-3.898438 3.910157-10.238282 0-14.140625zm0 0"/><path d="m73.636719 424.214844c-3.910157 3.898437-3.910157 10.238281 0 14.140625 3.902343 3.90625 10.238281 3.90625 14.140625 0 3.910156-3.902344 3.910156-10.242188 0-14.140625-3.902344-3.910156-10.242188-3.910156-14.140625 0zm0 0"/><path d="m38.28125 459.5625c-3.902344 3.910156-3.902344 10.238281 0 14.148438 3.910156 3.898437 10.238281 3.898437 14.148438 0 3.898437-3.910157 3.898437-10.238282 0-14.148438-3.910157-3.898438-10.242188-3.898438-14.148438 0zm0 0"/><path d="m17.070312 509.058594c3.910157-3.898438 3.910157-10.238282 0-14.140625-3.898437-3.910157-10.238281-3.910157-14.136718 0-3.910156 3.902343-3.910156 10.242187 0 14.140625 3.898437 3.910156 10.238281 3.910156 14.136718 0zm0 0"/><path d="m315.457031.300781c-12.582031 1.476563-23.082031 8.472657-30.375 20.238281l-51.503906 77.476563c-3.058594 4.597656-1.808594 10.804687 2.789063 13.859375 4.601562 3.058594 10.808593 1.808594 13.863281-2.789062l34.71875-52.226563 170.183593 170.179687-129.734374 86.242188-126.6875-126.6875 7.226562-10.871094c3.058594-4.597656 1.808594-10.804687-2.792969-13.859375-4.597656-3.058593-10.804687-1.808593-13.863281 2.792969l-45.054688 67.78125c-9.90625-2.320312-20.695312.472656-28.164062 7.941406-8.085938 8.089844-10.546875 19.542969-7.570312 29.699219l-30.945313 10.3125c-1.492187.496094-2.886719 1.390625-3.910156 2.414063-13.914063 13.914062-18.144531 35.292968-11.917969 60.199218 5.773438 23.101563 20.046875 46.921875 40.199219 67.074219 33.738281 33.730469 93.566406 61.308594 126.929687 28.601563.011719-.015626.027344-.027344.039063-.039063 1.226562-1.203125 2.128906-2.4375 2.714843-4.195313l10.320313-30.960937c10.402344 3.046875 21.820313.316406 29.691406-7.554687 7.464844-7.464844 10.261719-18.246094 7.941407-28.160157l211.898437-140.859375c11.773437-7.296875 18.773437-17.800781 20.25-30.386718 4.269531-36.371094-37.949219-83.785157-75.203125-121.03125-37.242188-37.25-84.664062-79.460938-121.042969-75.191407zm-7.050781 324.273438-39.484375 26.246093-107.753906-107.753906 26.25-39.480468zm-187.976562-37.394531 104.382812 104.378906-7.066406 21.214844-118.527344-118.527344zm-4.375 108.757812c-30.144532-30.152344-43.832032-68.582031-34.007813-90.578125l124.585937 124.585937c-21.996093 9.824219-60.425781-3.863281-90.578124-34.007812zm141.417968-14.148438c-3.902344 3.898438-10.25 3.898438-14.148437 0l-113.121094-113.121093c-3.90625-3.910157-3.90625-10.238281 0-14.148438 3.769531-3.765625 10.121094-4.015625 14.136719 0l113.128906 113.132813c3.984375 3.976562 3.800781 10.335937.003906 14.136718zm234.367188-187.597656c-.777344 6.617188-4.28125 11.632813-11.027344 15.785156-.101562.0625-.199219.125-.296875.191407l-8.394531 5.578125-175.875-175.875s5.707031-8.59375 5.769531-8.691406c4.148437-6.742188 9.160156-10.242188 15.773437-11.019532 31.4375-3.675781 86.476563 51.378906 104.570313 69.472656 18.097656 18.09375 73.167969 73.148438 69.480469 104.558594zm0 0"/><path d="m212.910156 129.953125c-3.898437 3.902344-3.898437 10.230469 0 14.140625 3.910156 3.898438 10.238282 3.898438 14.148438 0 3.898437-3.910156 3.898437-10.238281 0-14.140625-3.910156-3.910156-10.238282-3.910156-14.148438 0zm0 0"/></symbol><symbol id="sausages" viewBox="0 0 512 512">
<g>
	<g>
		<path d="M482.009,125.121c10.744-7.207,19.32-19.304,23.293-34.132c0.686-2.562,0.327-5.292-0.999-7.588
			c-1.326-2.297-3.51-3.973-6.072-4.659L434.33,61.619c-2.561-0.687-5.291-0.327-7.588,0.999c-2.297,1.326-3.973,3.51-4.659,6.072
			c-3.975,14.835-2.423,29.589,3.252,41.162c-30.429,3.963-56.085,25.977-64.195,56.245
			c-12.229,45.636-41.491,83.775-82.398,107.392c-26.895,15.528-57.431,23.735-88.303,23.735c-15.415,0-30.858-2.044-45.9-6.074
			c-6.516-1.746-13.211-2.631-19.9-2.631c-24.345,0-46.615,11.565-60.825,30.06c-0.574-0.852-1.17-1.7-1.81-2.534
			c-7.583-9.879-19.052-17.273-32.293-20.821c-2.561-0.685-5.29-0.327-7.588,0.999c-2.297,1.326-3.973,3.51-4.659,6.072
			L0.341,366.198c-0.686,2.562-0.327,5.292,0.999,7.588c1.326,2.297,3.51,3.973,6.072,4.659c5.556,1.489,11.211,2.244,16.809,2.244
			c8.993,0,17.32-1.94,24.389-5.414c3.964,29.83,25.377,55.854,56.209,64.114c28.064,7.52,56.894,11.333,85.683,11.333
			c57.684,0,114.729-15.332,164.968-44.338c76.414-44.118,131.073-115.347,153.908-200.568
			C517.632,175.008,505.827,143.474,482.009,125.121z M50.56,345.409c-2.45,9.14-13.035,15.28-26.339,15.28
			c-0.562,0-1.125-0.011-1.689-0.034l11.381-42.475c4.934,2.584,9.127,6.006,12.227,10.044
			C50.453,333.845,52.024,339.948,50.56,345.409z M439.895,83.815l42.415,11.365c-5.428,10.246-14.35,17.195-23.084,17.195
			c-1.392,0-2.772-0.181-4.107-0.538C445.368,109.225,439.396,97.398,439.895,83.815z M490.059,200.64
			c-21.452,80.06-72.802,146.977-144.59,188.424c-47.204,27.252-100.79,41.659-154.968,41.659c-27.042,0-54.129-3.584-80.507-10.652
			c-30.216-8.096-48.213-39.266-40.117-69.484c6.637-24.768,29.154-42.067,54.761-42.067c4.942,0,9.897,0.656,14.725,1.95
			c16.729,4.482,33.913,6.755,51.076,6.755c34.378,0,68.371-9.134,98.303-26.415c45.533-26.288,78.105-68.741,91.716-119.537
			c6.636-24.768,29.153-42.067,54.759-42.067c4.94,0,9.893,0.655,14.72,1.948c0.002,0.001,0.003,0.001,0.005,0.001
			c0.001,0,0.003,0.001,0.005,0.001C480.16,139.256,498.154,170.424,490.059,200.64z"/>
	</g>
</g>
<g>
	<g>
		<path d="M135.771,324.664c-0.005-0.001-0.118-0.032-0.123-0.033c-5.317-1.47-10.83,1.652-12.302,6.976
			c-1.471,5.323,1.652,10.831,6.976,12.302c0.013,0.003,0.084,0.023,0.112,0.031c0.89,0.246,1.785,0.363,2.666,0.363
			c4.38,0,8.4-2.9,9.629-7.326C144.208,331.654,141.093,326.142,135.771,324.664z"/>
	</g>
</g>
<g>
	<g>
		<path d="M461.086,211.966c-5.171-1.948-10.937,0.664-12.884,5.832c-5.43,14.411-12.105,28.439-19.842,41.698
			c-2.784,4.77-1.173,10.894,3.597,13.677c1.585,0.925,3.319,1.364,5.03,1.364c3.44,0,6.788-1.776,8.646-4.961
			c8.299-14.222,15.46-29.27,21.283-44.727C468.864,219.681,466.254,213.913,461.086,211.966z"/>
	</g>
</g>
<g>
	<g>
		<path d="M468.814,184.655c-5.324-1.418-10.802,1.793-12.238,7.108c-0.004,0.014-0.029,0.108-0.033,0.123
			c-1.415,5.33,1.761,10.759,7.087,12.187c0.86,0.23,1.725,0.341,2.575,0.341c4.417,0,8.471-2.966,9.678-7.429l0.051-0.19
			C477.325,191.466,474.135,186.07,468.814,184.655z"/>
	</g>
</g>
<g>
	<g>
		<path d="M233.376,337.857c-0.828-5.461-5.923-9.217-11.387-8.391c-4.323,0.654-8.721,1.181-13.069,1.564
			c-15.414,1.358-31.013,1.011-46.367-1.031c-5.475-0.726-10.503,3.12-11.231,8.594c-0.728,5.475,3.12,10.503,8.595,11.231
			c10.106,1.344,20.31,2.017,30.509,2.017c6.762,0,13.521-0.296,20.248-0.888c4.762-0.419,9.576-0.996,14.31-1.712
			C230.445,348.414,234.202,343.318,233.376,337.857z"/>
	</g>
</g>
<g>
</g>
<g>
</g>
<g>
</g>
<g>
</g>
<g>
</g>
<g>
</g>
<g>
</g>
<g>
</g>
<g>
</g>
<g>
</g>
<g>
</g>
<g>
</g>
<g>
</g>
<g>
</g>
<g>
</g>
</symbol><symbol id="sausages1" viewBox="0 0 511.984 511.984"><g><path d="m103.456 94.84c-4.702-1.48-9.564-2.185-14.402-2.133l1.219-16.14c.308-4.069-1.597-8.024-4.971-10.322-3.38-2.302-7.77-2.626-11.463-.84l-29.881 14.505c-3.69 1.785-6.156 5.433-6.436 9.52s1.666 8.036 5.065 10.299l12.285 8.206c-12.992 13.662-16.831 33.394-8.796 51.071 37.251 81.953 37.962 174.71 0 258.229-8.035 17.678-4.196 37.408 8.795 51.07l-12.29 8.204c-3.399 2.275-5.338 6.222-5.06 10.298.279 4.078 2.737 7.725 6.426 9.521l29.9 14.515c3.675 1.778 8.065 1.462 11.453-.845 3.375-2.298 5.279-6.253 4.971-10.321l-1.22-16.157c4.846.065 9.697-.636 14.403-2.118 12.492-3.934 22.767-13.011 28.191-24.905 48.798-107.006 48.798-229.747 0-336.753-5.422-11.894-15.698-20.971-28.189-24.904zm-28.605-13.252-1.048 13.879c-2.171.782-4.291 1.728-6.342 2.838l-11.383-7.604zm-18.78 403.952 11.403-7.611c2.048 1.108 4.16 2.062 6.328 2.843l1.049 13.885zm61.929-35.267c-3.663 8.032-10.606 14.164-19.048 16.821-8.467 2.665-17.705 1.61-25.344-2.896-15.043-8.873-20.749-25.633-13.875-40.756 13.651-30.034 22.529-61.611 26.645-93.653l21.911-10.631c3.727-1.809 5.282-6.296 3.474-10.022s-6.294-5.281-10.021-3.474l-13.59 6.594c.475-6.419.764-12.849.86-19.281l19.278-9.354c3.727-1.809 5.282-6.296 3.474-10.022s-6.296-5.281-10.021-3.474l-12.908 6.263c-.219-6.106-.605-12.208-1.167-18.298l20.622-10.006c3.727-1.809 5.282-6.296 3.474-10.022s-6.294-5.281-10.021-3.474l-15.922 7.726c-4.332-30.621-13.023-60.774-26.086-89.515-6.874-15.123-1.168-31.883 13.875-40.756 4.868-2.871 10.382-4.341 15.934-4.341 3.163 0 6.338.478 9.411 1.444 8.442 2.658 15.385 8.79 19.048 16.822 46.99 103.051 46.99 221.255-.003 324.305zm203.325-425.096c-.279-4.077-2.737-7.725-6.426-9.521l-29.899-14.515c-3.685-1.782-8.073-1.458-11.453.845-3.375 2.298-5.279 6.253-4.971 10.321l1.219 16.143c-4.838-.051-9.701.652-14.402 2.133-12.492 3.934-22.767 13.011-28.191 24.905-34.096 74.766-44.656 157.102-30.538 238.107.711 4.079 4.595 6.812 8.676 6.101s6.812-4.596 6.101-8.677c-13.597-78.012-3.427-157.306 29.408-229.307 3.663-8.032 10.606-14.164 19.048-16.821 8.466-2.667 17.704-1.61 25.344 2.896 15.043 8.873 20.749 25.633 13.875 40.756-13.063 28.74-21.754 58.894-26.086 89.515l-15.921-7.726c-3.727-1.809-8.213-.253-10.021 3.474s-.253 8.214 3.474 10.022l20.622 10.006c-.562 6.09-.947 12.191-1.167 18.298l-12.907-6.263c-3.727-1.809-8.213-.253-10.021 3.474s-.253 8.214 3.474 10.022l19.278 9.354c.096 6.433.385 12.862.86 19.281l-13.589-6.594c-3.727-1.808-8.213-.253-10.021 3.474s-.253 8.214 3.474 10.022l21.91 10.631c4.116 32.042 12.993 63.619 26.645 93.653 6.874 15.123 1.169 31.883-13.874 40.756-7.641 4.508-16.877 5.562-25.345 2.896-8.442-2.658-15.385-8.79-19.048-16.822-9.029-19.799-16.447-40.496-22.046-61.516-1.066-4.002-5.177-6.384-9.178-5.316-4.002 1.066-6.383 5.175-5.316 9.178 5.814 21.827 13.517 43.318 22.893 63.879 5.424 11.895 15.7 20.972 28.191 24.904 4.701 1.48 9.557 2.184 14.402 2.119l-1.22 16.153c-.308 4.069 1.597 8.024 4.971 10.322 3.391 2.309 7.784 2.62 11.463.84l29.88-14.505c3.69-1.785 6.156-5.433 6.436-9.521.279-4.087-1.666-8.035-5.065-10.298l-12.284-8.206c12.992-13.661 16.831-33.394 8.796-51.071-37.454-82.396-37.131-176.538 0-258.229 8.035-17.678 4.196-37.409-8.795-51.071l12.29-8.203c3.394-2.276 5.333-6.221 5.054-10.298zm-37.328 405.22 1.048-13.881c2.169-.781 4.282-1.735 6.33-2.844l11.394 7.611zm7.388-396.35c-2.05-1.109-4.169-2.055-6.34-2.837l-1.048-13.882 18.779 9.116zm182.751 202.772c-.174-4.138-3.664-7.378-7.808-7.179-4.139.174-7.353 3.669-7.179 7.808 2.568 61.164-9.49 122.912-34.871 178.568-3.664 8.032-10.606 14.164-19.049 16.822-8.468 2.662-17.705 1.608-25.344-2.896-15.043-8.873-20.749-25.633-13.875-40.756 13.651-30.034 22.529-61.611 26.645-93.653l21.91-10.631c3.727-1.809 5.282-6.296 3.474-10.022-1.807-3.726-6.295-5.281-10.021-3.474l-13.589 6.594c.475-6.419.764-12.849.86-19.281l19.278-9.354c3.727-1.809 5.282-6.296 3.474-10.022-1.807-3.726-6.295-5.277-10.021-3.474l-12.907 6.263c-.219-6.106-.605-12.208-1.167-18.298l20.622-10.006c3.727-1.809 5.282-6.296 3.474-10.022-1.807-3.727-6.295-5.281-10.021-3.474l-15.921 7.726c-4.332-30.621-13.023-60.774-26.086-89.515-6.874-15.123-1.168-31.883 13.874-40.756 7.641-4.506 16.879-5.56 25.345-2.896 8.442 2.658 15.385 8.79 19.049 16.822 16.213 35.555 26.975 73.234 31.986 111.992.531 4.107 4.292 7.006 8.399 6.477 4.108-.531 7.008-4.292 6.477-8.4-5.203-40.246-16.378-79.372-33.215-116.293-5.425-11.895-15.7-20.972-28.191-24.905-4.701-1.48-9.564-2.184-14.402-2.133l1.219-16.142c.308-4.069-1.597-8.024-4.971-10.322-3.381-2.302-7.769-2.627-11.463-.84l-29.902 14.513c-3.679 1.792-6.138 5.439-6.417 9.517-.278 4.077 1.66 8.022 5.068 10.304l12.281 8.197c-12.992 13.662-16.83 33.394-8.795 51.071 13.877 30.531 22.582 62.734 26.132 95.364 6.06 55.698-2.528 110.936-26.132 162.865-8.035 17.678-4.196 37.41 8.796 51.071l-12.273 8.198c-3.411 2.271-5.355 6.219-5.076 10.306.28 4.088 2.746 7.735 6.426 9.516l29.899 14.515c3.675 1.778 8.065 1.462 11.453-.845 3.375-2.298 5.279-6.253 4.971-10.321l-1.22-16.154c4.846.065 9.697-.636 14.402-2.118 12.491-3.934 22.767-13.011 28.191-24.905 26.357-57.795 38.878-121.913 36.211-185.422zm-93.005-189.491-1.048 13.882c-2.171.782-4.291 1.727-6.341 2.837l-11.39-7.603zm-18.773 403.955 11.394-7.611c2.048 1.108 4.162 2.062 6.33 2.844l1.048 13.881z"/></g></symbol><symbol id="sprite_auto"><symbol id="a64cb9c96d4dd825f07df6af047e8ae7" viewBox="0 0 1000 1000">
<metadata> Svg Vector Icons : http://www.onlinewebfonts.com/icon </metadata>
<g><path d="M424.4,766c-2.8,7.5,32.7,7,37.4-0.1c3.8-5.8,4.1-28.8,7.4-50.5c-21.1-7.8-37.1-16-47-21.7C434.9,747.4,427.2,758.6,424.4,766z M953.5,306.3c6.4,2.5,34.6,7.6,36.5-20.4c1.9-28.1-28.3-29.7-28.3-29.7c4.4-12.5,23.7-11.7,23.7-11.7c-0.8-3.5-6.8-8.4-23.1-7.1c-16.3,1.4-22.9,22.9-22.9,22.9c-12.5,2.1-21.7,11.5-26.8,18.2c-40.6-41.6-100.6-69.7-186.1-59.7c-236.1,27.7-336.7,14.9-407.4,39c-154.9,52.8-135.5,124.9-170,126c-34.4,1.1-152.8-15.1-137.7,3.2c15.1,18.3,53.8,46.3,81.8,53.8c28,7.5,18.3,28,7.5,42c-10.8,14-10.8,48.4-51.6,39.8c0,0-26.9-10.8-17.2,15.1c9.7,25.8,1.1,24.8,22.6,36.6c21.5,11.8,24.7,4.3,55.9,12.9c31.2,8.6,36.4,78.8,182.9,82.9c10.4,0.3,23.4-0.8,38.1-2.7c-3.6-6.2-7.7-12.2-12.3-17.7c-8.2-9.9-16-18.6-23.6-28.4l-9.2-33.6c0,0,22.2,33.9,38.6,48.4c0.5,0.6,1.1,1.2,1.6,1.8c22.6,24.8,39.8,91.5,17.2,110.9c-22.6,19.4-35.5,22.6-15.1,28c20.4,5.4,39.8-4.3,39.8-4.3s8.6-11.8,16.1-16.1c7.5-4.3,10.8-33.4,13-47.4c2.2-14,15.1-54.9,17.2-70c0.5-3.8,1.6-8.4,2.8-13.7c0.7,6.9,0.7,14,0.1,21.4c-1,10.8-1.1,22.4-1.1,35.7c1.3,0.8,2.5,1.6,3.8,2.4c0,0.1,0,0.1,0,0.2c21.3,11.9,93.4,46.7,194.3,38.9c121.1-9.4,195.8-55.3,195.8-55.3l0,0c5.1-3.2,10-6.6,14.6-10c-3.9-15.3-11.8-39.8-27.7-75.2c-0.5-6,0.3-11.5,3.3-15.7c17.8,30.6,34.9,82.7,34.9,82.7l-0.3,1.1c4.7,20.7,7.4,39.3,7.8,50.7c0.9,27.3,0.9,41.5-1.9,46.2c-2.8,4.7-33.9,25.4-25.4,34.9c0,0,33.9,1.9,52.7-6.6c18.8-8.5,12.2-23.6,17.9-37.7c5.6-14.1,43.3-69.7,38.6-93.3c-2.3-11.4-3.2-32.7-3.6-51.5c33.5-35.4,61.6-87.2,63.5-132.8c1.7-41.7-14.5-114-60.1-169.2c3.9-12.5,13.4-14.2,13.4-14.2C936.6,289.4,942.8,302.2,953.5,306.3z M954,270.6l1.6-0.5c0,0,19,2.2,18.8,12c-0.3,9.8-9.5,13.6-16.6,9C950.7,286.4,954,270.6,954,270.6z M194.2,422.1c-0.8-0.2-1.4-0.4-1.9-0.5c1.2,0.3,2.3,0.6,3.4,0.9C195.3,422.3,194.8,422.2,194.2,422.1z M730.2,720c0,6.6-30.1,44.3-30.1,50.9c0,0,30.1,7.5,39.5,0c9.4-7.5,17.9-21.7,17.9-21.7s19.8-18.8,25.4-26.4c3.6-4.8,7.2-20.9,10.5-34.7c-14.7,6.6-35.9,15.4-61.8,23.7C730.7,715.5,730.2,718.3,730.2,720z"/></g>
</symbol></symbol></svg>