<?xml version="1.0" encoding="utf-8"?>
<!-- Svg Vector Icons : http://www.onlinewebfonts.com/icon -->
<!DOCTYPE svg PUBLIC "-//W3C//DTD SVG 1.1//EN" "http://www.w3.org/Graphics/SVG/1.1/DTD/svg11.dtd">
<svg version="1.1" xmlns="http://www.w3.org/2000/svg" xmlns:xlink="http://www.w3.org/1999/xlink" x="0px" y="0px" viewBox="0 0 1000 1000" enable-background="new 0 0 1000 1000" xml:space="preserve">
<metadata> Svg Vector Icons : http://www.onlinewebfonts.com/icon </metadata>
<g><path d="M424.4,766c-2.8,7.5,32.7,7,37.4-0.1c3.8-5.8,4.1-28.8,7.4-50.5c-21.1-7.8-37.1-16-47-21.7C434.9,747.4,427.2,758.6,424.4,766z M953.5,306.3c6.4,2.5,34.6,7.6,36.5-20.4c1.9-28.1-28.3-29.7-28.3-29.7c4.4-12.5,23.7-11.7,23.7-11.7c-0.8-3.5-6.8-8.4-23.1-7.1c-16.3,1.4-22.9,22.9-22.9,22.9c-12.5,2.1-21.7,11.5-26.8,18.2c-40.6-41.6-100.6-69.7-186.1-59.7c-236.1,27.7-336.7,14.9-407.4,39c-154.9,52.8-135.5,124.9-170,126c-34.4,1.1-152.8-15.1-137.7,3.2c15.1,18.3,53.8,46.3,81.8,53.8c28,7.5,18.3,28,7.5,42c-10.8,14-10.8,48.4-51.6,39.8c0,0-26.9-10.8-17.2,15.1c9.7,25.8,1.1,24.8,22.6,36.6c21.5,11.8,24.7,4.3,55.9,12.9c31.2,8.6,36.4,78.8,182.9,82.9c10.4,0.3,23.4-0.8,38.1-2.7c-3.6-6.2-7.7-12.2-12.3-17.7c-8.2-9.9-16-18.6-23.6-28.4l-9.2-33.6c0,0,22.2,33.9,38.6,48.4c0.5,0.6,1.1,1.2,1.6,1.8c22.6,24.8,39.8,91.5,17.2,110.9c-22.6,19.4-35.5,22.6-15.1,28c20.4,5.4,39.8-4.3,39.8-4.3s8.6-11.8,16.1-16.1c7.5-4.3,10.8-33.4,13-47.4c2.2-14,15.1-54.9,17.2-70c0.5-3.8,1.6-8.4,2.8-13.7c0.7,6.9,0.7,14,0.1,21.4c-1,10.8-1.1,22.4-1.1,35.7c1.3,0.8,2.5,1.6,3.8,2.4c0,0.1,0,0.1,0,0.2c21.3,11.9,93.4,46.7,194.3,38.9c121.1-9.4,195.8-55.3,195.8-55.3l0,0c5.1-3.2,10-6.6,14.6-10c-3.9-15.3-11.8-39.8-27.7-75.2c-0.5-6,0.3-11.5,3.3-15.7c17.8,30.6,34.9,82.7,34.9,82.7l-0.3,1.1c4.7,20.7,7.4,39.3,7.8,50.7c0.9,27.3,0.9,41.5-1.9,46.2c-2.8,4.7-33.9,25.4-25.4,34.9c0,0,33.9,1.9,52.7-6.6c18.8-8.5,12.2-23.6,17.9-37.7c5.6-14.1,43.3-69.7,38.6-93.3c-2.3-11.4-3.2-32.7-3.6-51.5c33.5-35.4,61.6-87.2,63.5-132.8c1.7-41.7-14.5-114-60.1-169.2c3.9-12.5,13.4-14.2,13.4-14.2C936.6,289.4,942.8,302.2,953.5,306.3z M954,270.6l1.6-0.5c0,0,19,2.2,18.8,12c-0.3,9.8-9.5,13.6-16.6,9C950.7,286.4,954,270.6,954,270.6z M194.2,422.1c-0.8-0.2-1.4-0.4-1.9-0.5c1.2,0.3,2.3,0.6,3.4,0.9C195.3,422.3,194.8,422.2,194.2,422.1z M730.2,720c0,6.6-30.1,44.3-30.1,50.9c0,0,30.1,7.5,39.5,0c9.4-7.5,17.9-21.7,17.9-21.7s19.8-18.8,25.4-26.4c3.6-4.8,7.2-20.9,10.5-34.7c-14.7,6.6-35.9,15.4-61.8,23.7C730.7,715.5,730.2,718.3,730.2,720z"/></g>
</svg>